# File produced by Open Asset Import Library (http://www.assimp.sf.net)
# (assimp v3.1.206520482)

mtllib N_Player_Platform_v2.mtl

# 16 vertex positions
v 540.006 600 600
v -540.006 600 600
v -540.006 -600 600
v 540.006 -600 600
v 540.006 -600 -600
v -540.006 -600 -600
v -540.006 600 -600
v 540.006 600 -600
v 600 600 -540.006
v 600 600 540.006
v 600 -600 540.006
v 600 -600 -540.006
v -600 600 540.006
v -600 600 -540.006
v -600 -600 -540.006
v -600 -600 540.006

# 26 UV coordinates
vt 0.612501 0.25 0
vt 0.387499 0.25 0
vt 0.387499 0 0
vt 0.612501 0 0
vt 0.612501 0.75 0
vt 0.387499 0.75 0
vt 0.387499 0.5 0
vt 0.612501 0.5 0
vt 0.862501 0.25 0
vt 0.637499 0.25 0
vt 0.637499 0 0
vt 0.862501 0 0
vt 0.362501 0.25 0
vt 0.137499 0.25 0
vt 0.137499 0 0
vt 0.362501 0 0
vt 0.634286 0.487501 0
vt 0.634286 0.262499 0
vt 0.612501 1 0
vt 0.387499 1 0
vt 0.362 0.762499 0
vt 0.362 0.487501 0
vt 0.634286 0.762499 0
vt 0.362 0.262499 0
vt 0.362 0.987501 0
vt 0.634286 0.987501 0

# 10 vertex normals
vn 0 0 1
vn 0 0 -1
vn 1 0 0
vn -1 0 0
vn 0 1 0
vn 0 -1 0
vn -0.707107 0 0.707107
vn 0.707107 0 0.707107
vn -0.707107 0 -0.707107
vn 0.707107 0 -0.707107

# Mesh 'pCube1_pCube1' with 28 faces
g pCube1_pCube1
usemtl lambert1
f 1/1/1 2/2/1 3/3/1
f 3/3/1 4/4/1 1/1/1
f 5/5/2 6/6/2 7/7/2
f 7/7/2 8/8/2 5/5/2
f 9/9/3 10/10/3 11/11/3
f 11/11/3 12/12/3 9/9/3
f 13/13/4 14/14/4 15/15/4
f 15/15/4 16/16/4 13/13/4
f 9/17/5 8/8/5 1/1/5
f 1/1/5 10/18/5 9/17/5
f 4/19/6 3/20/6 6/6/6
f 6/6/6 5/5/6 4/19/6
f 13/13/7 16/16/7 3/3/7
f 3/3/7 2/2/7 13/13/7
f 1/1/8 4/4/8 11/11/8
f 11/11/8 10/10/8 1/1/8
f 15/21/9 14/22/9 7/7/9
f 7/7/9 6/6/9 15/21/9
f 5/5/10 8/8/10 9/17/10
f 9/17/10 12/23/10 5/5/10
f 14/22/5 13/24/5 2/2/5
f 2/2/5 7/7/5 14/22/5
f 8/8/5 7/7/5 2/2/5
f 2/2/5 1/1/5 8/8/5
f 16/25/6 15/21/6 6/6/6
f 6/6/6 3/20/6 16/25/6
f 11/26/6 4/19/6 5/5/6
f 5/5/6 12/23/6 11/26/6

