# 3ds Max Wavefront OBJ Exporter v0.97b - (c)2007 guruware
# File Created: 02.05.2020 16:03:55

mtllib Crate01.mtl

#
# object Box001
#

v  -75.1547 57.4159 58.5121
v  -75.1547 74.9836 58.5121
v  -75.1547 74.9836 -58.5121
v  -75.1547 57.4159 -58.5121
v  -78.8559 0.0000 -76.0247
v  -78.8559 0.0000 76.0247
v  -78.8559 17.5125 58.5121
v  -78.8559 17.5125 -58.5121
v  -78.8559 152.0493 76.0247
v  -78.8559 134.5368 58.5121
v  -78.8559 152.0493 -76.0247
v  -78.8559 134.5368 -58.5121
v  -73.4629 17.5125 58.5121
v  -73.4629 17.5125 -58.5121
v  -73.4629 134.5368 58.5121
v  -73.4629 134.5368 -58.5121
v  -75.1547 116.3654 58.5121
v  -75.1547 134.5368 58.5121
v  -75.1547 134.5368 -58.5121
v  -75.1547 116.3654 -58.5121
v  -75.1547 96.7155 58.5121
v  -75.1547 114.2833 58.5121
v  -75.1547 114.2833 -58.5121
v  -75.1547 96.7155 -58.5121
v  -75.1547 77.0657 58.5121
v  -75.1547 94.6335 58.5121
v  -75.1547 94.6335 -58.5121
v  -75.1547 77.0657 -58.5121
v  -75.1547 35.6840 -58.5121
v  -75.1547 17.5125 -58.5121
v  -75.1547 17.5125 58.5121
v  -75.1547 35.6840 58.5121
v  -75.1547 55.3338 -58.5121
v  -75.1547 37.7660 -58.5121
v  -75.1547 37.7660 58.5121
v  -75.1547 55.3338 58.5121
v  -73.4000 76.0247 58.5121
v  -73.4000 76.0247 -58.5121
v  -73.4000 56.3748 -58.5121
v  -73.4000 56.3748 58.5121
v  -73.4000 115.3243 -58.5121
v  -73.4000 115.3243 58.5121
v  -73.4000 95.6745 -58.5121
v  -73.4000 95.6745 58.5121
v  -73.4000 36.7250 58.5121
v  -73.4000 36.7250 -58.5121
v  69.4922 57.4159 58.5121
v  69.4922 57.4159 -58.5121
v  69.4922 74.9836 -58.5121
v  69.4922 74.9836 58.5121
v  73.1934 0.0000 -76.0247
v  73.1934 17.5125 -58.5121
v  73.1934 17.5125 58.5121
v  73.1934 0.0000 76.0247
v  73.1934 134.5368 58.5121
v  73.1934 152.0493 76.0247
v  73.1934 134.5368 -58.5121
v  73.1934 152.0493 -76.0247
v  67.8003 17.5125 -58.5121
v  67.8003 17.5125 58.5121
v  67.8003 134.5368 58.5121
v  67.8003 134.5368 -58.5121
v  69.4922 116.3654 58.5121
v  69.4922 116.3654 -58.5121
v  69.4922 134.5368 -58.5121
v  69.4922 134.5368 58.5121
v  69.4922 96.7155 58.5121
v  69.4922 96.7155 -58.5121
v  69.4922 114.2833 -58.5121
v  69.4922 114.2833 58.5121
v  69.4922 77.0657 58.5121
v  69.4922 77.0657 -58.5121
v  69.4922 94.6335 -58.5121
v  69.4922 94.6335 58.5121
v  69.4922 35.6840 -58.5121
v  69.4922 35.6840 58.5121
v  69.4922 17.5125 58.5121
v  69.4922 17.5125 -58.5121
v  69.4922 55.3338 -58.5121
v  69.4922 55.3338 58.5121
v  69.4922 37.7660 58.5121
v  69.4922 37.7660 -58.5121
v  67.7375 76.0247 -58.5121
v  67.7375 76.0247 58.5121
v  67.7375 56.3748 58.5121
v  67.7375 56.3748 -58.5121
v  67.7375 115.3243 58.5121
v  67.7375 115.3243 -58.5121
v  67.7375 95.6745 58.5121
v  67.7375 95.6745 -58.5121
v  67.7375 36.7250 -58.5121
v  67.7375 36.7250 58.5121
# 92 vertices

vn -0.8690 -0.4949 -0.0000
vn -0.8690 0.4949 -0.0000
vn -1.0000 0.0000 -0.0000
vn -0.9045 0.3015 -0.3015
vn -0.9045 0.3015 0.3015
vn -0.9045 -0.3015 -0.3015
vn -0.9045 -0.3015 0.3015
vn 0.0000 0.7071 -0.7071
vn 0.0000 0.7071 0.7071
vn 0.0000 -0.7071 -0.7071
vn 0.0000 -0.7071 0.7071
vn -0.5102 0.8600 -0.0000
vn -0.5102 -0.8600 -0.0000
vn 0.8690 -0.4949 -0.0000
vn 0.8690 0.4949 -0.0000
vn 1.0000 0.0000 -0.0000
vn 0.9045 0.3015 0.3015
vn 0.9045 0.3015 -0.3015
vn 0.9045 -0.3015 -0.3015
vn 0.9045 -0.3015 0.3015
vn 0.5102 0.8600 -0.0000
vn 0.5102 -0.8600 -0.0000
# 22 vertex normals

vt 1.0000 0.3410 0.0000
vt 1.0000 0.4911 0.0000
vt 0.0000 0.4911 0.0000
vt 0.0000 0.3410 0.0000
vt 0.0000 0.0000 0.0000
vt 1.0000 0.0000 0.0000
vt 1.0000 1.0000 0.0000
vt 0.0000 1.0000 0.0000
vt 1.0000 0.8447 0.0000
vt 0.0000 0.8447 0.0000
vt 1.0000 0.6768 0.0000
vt 1.0000 0.8269 0.0000
vt 0.0000 0.8269 0.0000
vt 0.0000 0.6768 0.0000
vt 1.0000 0.5089 0.0000
vt 1.0000 0.6590 0.0000
vt 0.0000 0.6590 0.0000
vt 0.0000 0.5089 0.0000
vt 0.0000 0.1553 0.0000
vt 1.0000 0.1553 0.0000
vt 0.0000 0.3232 0.0000
vt 0.0000 0.1731 0.0000
vt 1.0000 0.1731 0.0000
vt 1.0000 0.3232 0.0000
vt 1.0000 0.5000 0.0000
vt 0.0000 0.5000 0.0000
vt 0.0000 0.3321 0.0000
vt 1.0000 0.3321 0.0000
vt 0.0000 0.8358 0.0000
vt 1.0000 0.8358 0.0000
vt 0.0000 0.6679 0.0000
vt 1.0000 0.6679 0.0000
vt 1.0000 0.1642 0.0000
vt 0.0000 0.1642 0.0000
# 34 texture coords

o Box001
g Box001
usemtl wire_087225143
s 64
f 1/1/1 2/2/2 3/3/2 4/4/1 
s off
f 5/5/3 6/6/3 7/6/4 8/5/5 
f 6/6/3 9/7/3 10/7/6 7/6/4 
f 9/7/3 11/8/3 12/8/7 10/7/6 
f 11/8/3 5/5/3 8/5/5 12/8/7 
f 8/5/5 7/6/4 13/6/8 14/5/9 
f 7/6/4 10/7/6 15/7/10 13/6/8 
f 10/7/6 12/8/7 16/8/11 15/7/10 
f 12/8/7 8/5/5 14/5/9 16/8/11 
s 64
f 17/9/1 18/7/3 19/8/3 20/10/1 
f 21/11/1 22/12/2 23/13/2 24/14/1 
f 25/15/3 26/16/3 27/17/3 28/18/3 
f 29/19/2 30/5/3 31/6/3 32/20/2 
f 33/21/2 34/22/1 35/23/1 36/24/2 
s off
f 2/2/2 37/25/12 38/26/12 3/3/2 
f 4/4/1 39/27/3 40/28/3 1/1/1 
f 20/10/1 41/29/3 42/30/3 17/9/1 
f 22/12/2 42/30/3 41/29/3 23/13/2 
f 24/14/1 43/31/13 44/32/13 21/11/1 
f 26/16/12 44/32/12 43/31/12 27/17/12 
f 28/18/13 38/26/13 37/25/13 25/15/13 
f 32/20/2 45/33/3 46/34/3 29/19/2 
f 34/22/1 46/34/3 45/33/3 35/23/1 
f 36/24/2 40/28/3 39/27/3 33/21/2 
s 64
f 47/1/14 48/4/14 49/3/15 50/2/15 
s off
f 51/5/16 52/5/17 53/6/18 54/6/16 
f 54/6/16 53/6/18 55/7/19 56/7/16 
f 56/7/16 55/7/19 57/8/20 58/8/16 
f 58/8/16 57/8/20 52/5/17 51/5/16 
f 52/5/17 59/5/9 60/6/8 53/6/18 
f 53/6/18 60/6/8 61/7/10 55/7/19 
f 55/7/19 61/7/10 62/8/11 57/8/20 
f 57/8/20 62/8/11 59/5/9 52/5/17 
s 64
f 63/9/14 64/10/14 65/8/16 66/7/16 
f 67/11/14 68/14/14 69/13/15 70/12/15 
f 71/15/16 72/18/16 73/17/16 74/16/16 
f 75/19/15 76/20/15 77/6/16 78/5/16 
f 79/21/15 80/24/15 81/23/14 82/22/14 
s off
f 50/2/15 49/3/15 83/26/21 84/25/21 
f 48/4/14 47/1/14 85/28/16 86/27/16 
f 64/10/14 63/9/14 87/30/16 88/29/16 
f 70/12/15 69/13/15 88/29/16 87/30/16 
f 68/14/14 67/11/14 89/32/22 90/31/22 
f 74/16/21 73/17/21 90/31/21 89/32/21 
f 72/18/22 71/15/22 84/25/22 83/26/22 
f 76/20/15 75/19/15 91/34/16 92/33/16 
f 82/22/14 81/23/14 92/33/16 91/34/16 
f 80/24/15 79/21/15 86/27/16 85/28/16 
# 48 polygons

#
# object Box003
#

v  -78.0364 35.4683 -57.8814
v  -78.0364 17.6638 -57.9502
v  -78.0364 17.9663 -40.3772
v  -78.0364 114.4228 58.1983
v  -78.0364 134.3692 58.2990
v  -78.0364 134.2709 41.0706
v  -76.9963 9.9269 -46.4400
v  -76.9963 116.5889 62.0932
v  -76.9963 140.3135 46.6844
v  -76.9963 30.8446 -61.8489
v  70.1758 35.4683 -57.8814
v  70.1758 134.2709 41.0706
v  70.1758 134.3692 58.2990
v  70.1758 114.4228 58.1983
v  70.1758 17.9663 -40.3772
v  70.1758 17.6638 -57.9502
v  69.1356 9.9269 -46.4400
v  69.1356 116.5889 62.0932
v  69.1356 140.3135 46.6844
v  69.1356 30.8446 -61.8489
# 20 vertices

vn -0.5189 0.6049 -0.6040
vn -1.0000 0.0000 -0.0000
vn -0.8809 -0.3383 0.3310
vn -0.8581 -0.3670 0.3591
vn -0.7025 0.5036 -0.5029
vn -0.6224 -0.5582 0.5486
vn -0.5360 -0.6021 0.5917
vn -0.1420 0.6969 -0.7029
vn 0.2284 0.6855 -0.6914
vn 0.5189 0.6049 -0.6040
vn 0.7025 0.5036 -0.5029
vn 1.0000 0.0000 -0.0000
vn 0.8581 -0.3670 0.3591
vn 0.8809 -0.3383 0.3310
vn 0.6224 -0.5582 0.5486
vn 0.5360 -0.6021 0.5917
vn 0.1420 0.6969 -0.7029
vn -0.2284 0.6855 -0.6914
# 18 vertex normals

vt 1.0000 1.0000 1.0000
# 1 texture coords

o Box003
g Box003
usemtl wire_087225143
s off
f 93/35/23 94/35/24 95/35/25 96/35/26 97/35/24 98/35/27 
f 99/35/28 100/35/29 96/35/26 95/35/25 
f 101/35/30 102/35/31 93/35/23 98/35/27 
f 103/35/32 104/35/33 105/35/34 106/35/35 107/35/36 108/35/34 
f 109/35/37 107/35/36 106/35/35 110/35/38 
f 111/35/39 104/35/33 103/35/32 112/35/40 
# 6 polygons

#
# object Box004
#

v  55.2738 57.4159 71.9978
v  55.2738 74.9836 71.9978
v  -61.7505 74.9836 71.9978
v  -61.7505 57.4159 71.9978
v  -79.2630 0.0000 75.6990
v  72.7863 0.0000 75.6990
v  55.2738 17.5125 75.6990
v  -61.7505 17.5125 75.6990
v  72.7863 152.0493 75.6990
v  55.2738 134.5368 75.6990
v  -79.2630 152.0493 75.6990
v  -61.7505 134.5368 75.6990
v  55.2738 17.5125 70.3060
v  -61.7505 17.5125 70.3060
v  55.2738 134.5368 70.3060
v  -61.7505 134.5368 70.3060
v  55.2738 116.3654 71.9978
v  55.2738 134.5368 71.9978
v  -61.7505 134.5368 71.9978
v  -61.7505 116.3654 71.9978
v  55.2738 96.7155 71.9978
v  55.2738 114.2833 71.9978
v  -61.7505 114.2833 71.9978
v  -61.7505 96.7155 71.9978
v  55.2738 77.0657 71.9978
v  55.2738 94.6335 71.9978
v  -61.7505 94.6335 71.9978
v  -61.7505 77.0657 71.9978
v  -61.7505 35.6840 71.9978
v  -61.7505 17.5125 71.9978
v  55.2738 17.5125 71.9978
v  55.2738 35.6840 71.9978
v  -61.7505 55.3338 71.9978
v  -61.7505 37.7660 71.9978
v  55.2738 37.7660 71.9978
v  55.2738 55.3338 71.9978
v  55.2738 76.0247 70.2431
v  -61.7505 76.0247 70.2431
v  -61.7505 56.3748 70.2431
v  55.2738 56.3748 70.2431
v  -61.7505 115.3243 70.2431
v  55.2738 115.3243 70.2431
v  -61.7505 95.6745 70.2431
v  55.2738 95.6745 70.2431
v  55.2738 36.7250 70.2431
v  -61.7505 36.7250 70.2431
v  55.2738 57.4159 -72.6491
v  -61.7505 57.4159 -72.6491
v  -61.7505 74.9836 -72.6491
v  55.2738 74.9836 -72.6491
v  -79.2630 0.0000 -76.3503
v  -61.7505 17.5125 -76.3503
v  55.2738 17.5125 -76.3503
v  72.7863 0.0000 -76.3503
v  55.2738 134.5368 -76.3503
v  72.7863 152.0493 -76.3503
v  -61.7505 134.5368 -76.3503
v  -79.2630 152.0493 -76.3503
v  -61.7505 17.5125 -70.9572
v  55.2738 17.5125 -70.9572
v  55.2738 134.5368 -70.9572
v  -61.7505 134.5368 -70.9572
v  55.2738 116.3654 -72.6491
v  -61.7505 116.3654 -72.6491
v  -61.7505 134.5368 -72.6491
v  55.2738 134.5368 -72.6491
v  55.2738 96.7155 -72.6491
v  -61.7505 96.7155 -72.6491
v  -61.7505 114.2833 -72.6491
v  55.2738 114.2833 -72.6491
v  55.2738 77.0657 -72.6491
v  -61.7505 77.0657 -72.6491
v  -61.7505 94.6335 -72.6491
v  55.2738 94.6335 -72.6491
v  -61.7505 35.6840 -72.6491
v  55.2738 35.6840 -72.6491
v  55.2738 17.5125 -72.6491
v  -61.7505 17.5125 -72.6491
v  -61.7505 55.3338 -72.6491
v  55.2738 55.3338 -72.6491
v  55.2738 37.7660 -72.6491
v  -61.7505 37.7660 -72.6491
v  -61.7505 76.0247 -70.8944
v  55.2738 76.0247 -70.8944
v  55.2738 56.3748 -70.8944
v  -61.7505 56.3748 -70.8944
v  55.2738 115.3243 -70.8944
v  -61.7505 115.3243 -70.8944
v  55.2738 95.6745 -70.8944
v  -61.7505 95.6745 -70.8944
v  -61.7505 36.7250 -70.8944
v  55.2738 36.7250 -70.8944
# 92 vertices

vn 0.0000 -0.4949 0.8690
vn 0.0000 0.4949 0.8690
vn 0.0000 0.0000 1.0000
vn -0.3015 0.3015 0.9045
vn 0.3015 0.3015 0.9045
vn -0.3015 -0.3015 0.9045
vn 0.3015 -0.3015 0.9045
vn -0.7071 0.7071 0.0000
vn 0.7071 0.7071 -0.0000
vn -0.7071 -0.7071 0.0000
vn 0.7071 -0.7071 -0.0000
vn 0.0000 0.8600 0.5102
vn 0.0000 -0.8600 0.5102
vn -0.0000 -0.4949 -0.8690
vn -0.0000 0.4949 -0.8690
vn -0.0000 0.0000 -1.0000
vn 0.3015 0.3015 -0.9045
vn -0.3015 0.3015 -0.9045
vn -0.3015 -0.3015 -0.9045
vn 0.3015 -0.3015 -0.9045
vn -0.0000 0.8600 -0.5102
vn -0.0000 -0.8600 -0.5102
# 22 vertex normals

vt 1.0000 0.3410 0.0000
vt 1.0000 0.4911 0.0000
vt 0.0000 0.4911 0.0000
vt 0.0000 0.3410 0.0000
vt 0.0000 0.0000 0.0000
vt 1.0000 0.0000 0.0000
vt 1.0000 1.0000 0.0000
vt 0.0000 1.0000 0.0000
vt 1.0000 0.8447 0.0000
vt 0.0000 0.8447 0.0000
vt 1.0000 0.6768 0.0000
vt 1.0000 0.8269 0.0000
vt 0.0000 0.8269 0.0000
vt 0.0000 0.6768 0.0000
vt 1.0000 0.5089 0.0000
vt 1.0000 0.6590 0.0000
vt 0.0000 0.6590 0.0000
vt 0.0000 0.5089 0.0000
vt 0.0000 0.1553 0.0000
vt 1.0000 0.1553 0.0000
vt 0.0000 0.3232 0.0000
vt 0.0000 0.1731 0.0000
vt 1.0000 0.1731 0.0000
vt 1.0000 0.3232 0.0000
vt 1.0000 0.5000 0.0000
vt 0.0000 0.5000 0.0000
vt 0.0000 0.3321 0.0000
vt 1.0000 0.3321 0.0000
vt 0.0000 0.8358 0.0000
vt 1.0000 0.8358 0.0000
vt 0.0000 0.6679 0.0000
vt 1.0000 0.6679 0.0000
vt 1.0000 0.1642 0.0000
vt 0.0000 0.1642 0.0000
# 34 texture coords

o Box004
g Box004
usemtl wire_087225143
s 64
f 113/36/41 114/37/42 115/38/42 116/39/41 
s off
f 117/40/43 118/41/43 119/41/44 120/40/45 
f 118/41/43 121/42/43 122/42/46 119/41/44 
f 121/42/43 123/43/43 124/43/47 122/42/46 
f 123/43/43 117/40/43 120/40/45 124/43/47 
f 120/40/45 119/41/44 125/41/48 126/40/49 
f 119/41/44 122/42/46 127/42/50 125/41/48 
f 122/42/46 124/43/47 128/43/51 127/42/50 
f 124/43/47 120/40/45 126/40/49 128/43/51 
s 64
f 129/44/41 130/42/43 131/43/43 132/45/41 
f 133/46/41 134/47/42 135/48/42 136/49/41 
f 137/50/43 138/51/43 139/52/43 140/53/43 
f 141/54/42 142/40/43 143/41/43 144/55/42 
f 145/56/42 146/57/41 147/58/41 148/59/42 
s off
f 114/37/42 149/60/52 150/61/52 115/38/42 
f 116/39/41 151/62/43 152/63/43 113/36/41 
f 132/45/41 153/64/43 154/65/43 129/44/41 
f 134/47/42 154/65/43 153/64/43 135/48/42 
f 136/49/41 155/66/53 156/67/53 133/46/41 
f 138/51/52 156/67/52 155/66/52 139/52/52 
f 140/53/53 150/61/53 149/60/53 137/50/53 
f 144/55/42 157/68/43 158/69/43 141/54/42 
f 146/57/41 158/69/43 157/68/43 147/58/41 
f 148/59/42 152/63/43 151/62/43 145/56/42 
s 64
f 159/36/54 160/39/54 161/38/55 162/37/55 
s off
f 163/40/56 164/40/57 165/41/58 166/41/56 
f 166/41/56 165/41/58 167/42/59 168/42/56 
f 168/42/56 167/42/59 169/43/60 170/43/56 
f 170/43/56 169/43/60 164/40/57 163/40/56 
f 164/40/57 171/40/49 172/41/48 165/41/58 
f 165/41/58 172/41/48 173/42/50 167/42/59 
f 167/42/59 173/42/50 174/43/51 169/43/60 
f 169/43/60 174/43/51 171/40/49 164/40/57 
s 64
f 175/44/54 176/45/54 177/43/56 178/42/56 
f 179/46/54 180/49/54 181/48/55 182/47/55 
f 183/50/56 184/53/56 185/52/56 186/51/56 
f 187/54/55 188/55/55 189/41/56 190/40/56 
f 191/56/55 192/59/55 193/58/54 194/57/54 
s off
f 162/37/55 161/38/55 195/61/61 196/60/61 
f 160/39/54 159/36/54 197/63/56 198/62/56 
f 176/45/54 175/44/54 199/65/56 200/64/56 
f 182/47/55 181/48/55 200/64/56 199/65/56 
f 180/49/54 179/46/54 201/67/62 202/66/62 
f 186/51/61 185/52/61 202/66/61 201/67/61 
f 184/53/62 183/50/62 196/60/62 195/61/62 
f 188/55/55 187/54/55 203/69/56 204/68/56 
f 194/57/54 193/58/54 204/68/56 203/69/56 
f 192/59/55 191/56/55 198/62/56 197/63/56 
# 48 polygons

#
# object Box005
#

v  -61.1197 35.4683 74.8795
v  -61.1885 17.6638 74.8795
v  -43.6156 17.9663 74.8795
v  54.9599 114.4228 74.8795
v  55.0606 134.3692 74.8795
v  37.8323 134.2709 74.8795
v  -49.6784 9.9269 73.8393
v  58.8549 116.5889 73.8393
v  43.4460 140.3135 73.8393
v  -65.0872 30.8446 73.8393
v  -61.1197 35.4683 -73.3327
v  37.8323 134.2709 -73.3327
v  55.0606 134.3692 -73.3327
v  54.9599 114.4228 -73.3327
v  -43.6156 17.9663 -73.3327
v  -61.1885 17.6638 -73.3327
v  -49.6784 9.9269 -72.2925
v  58.8549 116.5889 -72.2925
v  43.4460 140.3135 -72.2925
v  -65.0873 30.8446 -72.2925
# 20 vertices

vn -0.6040 0.6049 0.5189
vn 0.0000 0.0000 1.0000
vn 0.3310 -0.3383 0.8809
vn 0.3591 -0.3670 0.8581
vn -0.5029 0.5036 0.7025
vn 0.5486 -0.5582 0.6224
vn 0.5917 -0.6021 0.5360
vn -0.7029 0.6969 0.1420
vn -0.6914 0.6855 -0.2284
vn -0.6040 0.6049 -0.5189
vn -0.5029 0.5036 -0.7025
vn -0.0000 0.0000 -1.0000
vn 0.3591 -0.3670 -0.8581
vn 0.3310 -0.3383 -0.8809
vn 0.5486 -0.5582 -0.6224
vn 0.5917 -0.6021 -0.5360
vn -0.7029 0.6969 -0.1420
vn -0.6914 0.6855 0.2284
# 18 vertex normals

vt 1.0000 1.0000 1.0000
# 1 texture coords

o Box005
g Box005
usemtl wire_087225143
s off
f 205/70/63 206/70/64 207/70/65 208/70/66 209/70/64 210/70/67 
f 211/70/68 212/70/69 208/70/66 207/70/65 
f 213/70/70 214/70/71 205/70/63 210/70/67 
f 215/70/72 216/70/73 217/70/74 218/70/75 219/70/76 220/70/74 
f 221/70/77 219/70/76 218/70/75 222/70/78 
f 223/70/79 216/70/73 215/70/72 224/70/80 
# 6 polygons

#
# object Box006
#

v  55.2738 147.6803 18.3480
v  55.2738 147.6803 0.7803
v  -61.7505 147.6803 0.7803
v  -61.7505 147.6803 18.3481
v  -79.2630 151.3815 75.7639
v  72.7863 151.3815 75.7639
v  55.2738 151.3815 58.2514
v  -61.7505 151.3815 58.2514
v  72.7863 151.3815 -76.2854
v  55.2738 151.3815 -58.7729
v  -79.2630 151.3815 -76.2854
v  -61.7505 151.3815 -58.7729
v  55.2738 145.9884 58.2514
v  -61.7505 145.9884 58.2514
v  55.2738 145.9884 -58.7729
v  -61.7505 145.9884 -58.7729
v  55.2738 147.6803 -40.6015
v  55.2738 147.6803 -58.7729
v  -61.7505 147.6803 -58.7729
v  -61.7505 147.6803 -40.6015
v  55.2738 147.6803 -20.9516
v  55.2738 147.6803 -38.5194
v  -61.7505 147.6803 -38.5194
v  -61.7505 147.6803 -20.9516
v  55.2738 147.6803 -1.3018
v  55.2738 147.6803 -18.8696
v  -61.7505 147.6803 -18.8696
v  -61.7505 147.6803 -1.3018
v  -61.7505 147.6803 40.0800
v  -61.7505 147.6803 58.2514
v  55.2738 147.6803 58.2514
v  55.2738 147.6803 40.0799
v  -61.7505 147.6803 20.4301
v  -61.7505 147.6803 37.9979
v  55.2738 147.6803 37.9979
v  55.2738 147.6803 20.4301
v  55.2738 145.9256 -0.2608
v  -61.7505 145.9256 -0.2607
v  -61.7505 145.9256 19.3891
v  55.2738 145.9256 19.3891
v  -61.7505 145.9256 -39.5604
v  55.2738 145.9256 -39.5604
v  -61.7505 145.9256 -19.9106
v  55.2738 145.9256 -19.9106
v  55.2738 145.9256 39.0389
v  -61.7505 145.9256 39.0389
v  55.2738 3.0334 18.3480
v  -61.7505 3.0334 18.3481
v  -61.7505 3.0334 0.7803
v  55.2738 3.0334 0.7803
v  -79.2630 -0.6678 75.7639
v  -61.7505 -0.6678 58.2514
v  55.2738 -0.6678 58.2514
v  72.7863 -0.6678 75.7639
v  55.2738 -0.6678 -58.7729
v  72.7863 -0.6678 -76.2854
v  -61.7505 -0.6678 -58.7729
v  -79.2630 -0.6678 -76.2854
v  -61.7505 4.7252 58.2514
v  55.2738 4.7252 58.2514
v  55.2738 4.7252 -58.7729
v  -61.7505 4.7252 -58.7729
v  55.2738 3.0334 -40.6015
v  -61.7505 3.0334 -40.6015
v  -61.7505 3.0334 -58.7729
v  55.2738 3.0334 -58.7729
v  55.2738 3.0334 -20.9516
v  -61.7505 3.0334 -20.9516
v  -61.7505 3.0334 -38.5194
v  55.2738 3.0334 -38.5194
v  55.2738 3.0334 -1.3018
v  -61.7505 3.0334 -1.3018
v  -61.7505 3.0334 -18.8696
v  55.2738 3.0334 -18.8696
v  -61.7505 3.0334 40.0799
v  55.2738 3.0334 40.0799
v  55.2738 3.0334 58.2514
v  -61.7505 3.0334 58.2514
v  -61.7505 3.0334 20.4301
v  55.2738 3.0334 20.4301
v  55.2738 3.0334 37.9979
v  -61.7505 3.0334 37.9979
v  -61.7505 4.7881 -0.2607
v  55.2738 4.7881 -0.2608
v  55.2738 4.7881 19.3891
v  -61.7505 4.7881 19.3891
v  55.2738 4.7881 -39.5605
v  -61.7505 4.7881 -39.5604
v  55.2738 4.7881 -19.9106
v  -61.7505 4.7881 -19.9106
v  -61.7505 4.7881 39.0389
v  55.2738 4.7881 39.0389
# 92 vertices

vn 0.0000 0.8690 0.4949
vn -0.0000 0.8690 -0.4949
vn 0.0000 1.0000 0.0000
vn -0.3015 0.9045 -0.3015
vn 0.3015 0.9045 -0.3015
vn -0.3015 0.9045 0.3015
vn 0.3015 0.9045 0.3015
vn -0.7071 0.0000 -0.7071
vn 0.7071 0.0000 -0.7071
vn -0.7071 -0.0000 0.7071
vn 0.7071 -0.0000 0.7071
vn -0.0000 0.5102 -0.8600
vn 0.0000 0.5102 0.8600
vn 0.0000 -0.8690 0.4949
vn -0.0000 -0.8690 -0.4949
vn -0.0000 -1.0000 -0.0000
vn 0.3015 -0.9045 -0.3015
vn -0.3015 -0.9045 -0.3015
vn -0.3015 -0.9045 0.3015
vn 0.3015 -0.9045 0.3015
vn -0.0000 -0.5102 -0.8600
vn 0.0000 -0.5102 0.8600
# 22 vertex normals

vt 1.0000 0.3410 0.0000
vt 1.0000 0.4911 0.0000
vt 0.0000 0.4911 0.0000
vt 0.0000 0.3410 0.0000
vt 0.0000 0.0000 0.0000
vt 1.0000 0.0000 0.0000
vt 1.0000 1.0000 0.0000
vt 0.0000 1.0000 0.0000
vt 1.0000 0.8447 0.0000
vt 0.0000 0.8447 0.0000
vt 1.0000 0.6768 0.0000
vt 1.0000 0.8269 0.0000
vt 0.0000 0.8269 0.0000
vt 0.0000 0.6768 0.0000
vt 1.0000 0.5089 0.0000
vt 1.0000 0.6590 0.0000
vt 0.0000 0.6590 0.0000
vt 0.0000 0.5089 0.0000
vt 0.0000 0.1553 0.0000
vt 1.0000 0.1553 0.0000
vt 0.0000 0.3232 0.0000
vt 0.0000 0.1731 0.0000
vt 1.0000 0.1731 0.0000
vt 1.0000 0.3232 0.0000
vt 1.0000 0.5000 0.0000
vt 0.0000 0.5000 0.0000
vt 0.0000 0.3321 0.0000
vt 1.0000 0.3321 0.0000
vt 0.0000 0.8358 0.0000
vt 1.0000 0.8358 0.0000
vt 0.0000 0.6679 0.0000
vt 1.0000 0.6679 0.0000
vt 1.0000 0.1642 0.0000
vt 0.0000 0.1642 0.0000
# 34 texture coords

o Box006
g Box006
usemtl wire_087225143
s 64
f 225/71/81 226/72/82 227/73/82 228/74/81 
s off
f 229/75/83 230/76/83 231/76/84 232/75/85 
f 230/76/83 233/77/83 234/77/86 231/76/84 
f 233/77/83 235/78/83 236/78/87 234/77/86 
f 235/78/83 229/75/83 232/75/85 236/78/87 
f 232/75/85 231/76/84 237/76/88 238/75/89 
f 231/76/84 234/77/86 239/77/90 237/76/88 
f 234/77/86 236/78/87 240/78/91 239/77/90 
f 236/78/87 232/75/85 238/75/89 240/78/91 
s 64
f 241/79/81 242/77/83 243/78/83 244/80/81 
f 245/81/81 246/82/82 247/83/82 248/84/81 
f 249/85/83 250/86/83 251/87/83 252/88/83 
f 253/89/82 254/75/83 255/76/83 256/90/82 
f 257/91/82 258/92/81 259/93/81 260/94/82 
s off
f 226/72/82 261/95/92 262/96/92 227/73/82 
f 228/74/81 263/97/83 264/98/83 225/71/81 
f 244/80/81 265/99/83 266/100/83 241/79/81 
f 246/82/82 266/100/83 265/99/83 247/83/82 
f 248/84/81 267/101/93 268/102/93 245/81/81 
f 250/86/92 268/102/92 267/101/92 251/87/92 
f 252/88/93 262/96/93 261/95/93 249/85/93 
f 256/90/82 269/103/83 270/104/83 253/89/82 
f 258/92/81 270/104/83 269/103/83 259/93/81 
f 260/94/82 264/98/83 263/97/83 257/91/82 
s 64
f 271/71/94 272/74/94 273/73/95 274/72/95 
s off
f 275/75/96 276/75/97 277/76/98 278/76/96 
f 278/76/96 277/76/98 279/77/99 280/77/96 
f 280/77/96 279/77/99 281/78/100 282/78/96 
f 282/78/96 281/78/100 276/75/97 275/75/96 
f 276/75/97 283/75/89 284/76/88 277/76/98 
f 277/76/98 284/76/88 285/77/90 279/77/99 
f 279/77/99 285/77/90 286/78/91 281/78/100 
f 281/78/100 286/78/91 283/75/89 276/75/97 
s 64
f 287/79/94 288/80/94 289/78/96 290/77/96 
f 291/81/94 292/84/94 293/83/95 294/82/95 
f 295/85/96 296/88/96 297/87/96 298/86/96 
f 299/89/95 300/90/95 301/76/96 302/75/96 
f 303/91/95 304/94/95 305/93/94 306/92/94 
s off
f 274/72/95 273/73/95 307/96/101 308/95/101 
f 272/74/94 271/71/94 309/98/96 310/97/96 
f 288/80/94 287/79/94 311/100/96 312/99/96 
f 294/82/95 293/83/95 312/99/96 311/100/96 
f 292/84/94 291/81/94 313/102/102 314/101/102 
f 298/86/101 297/87/101 314/101/101 313/102/101 
f 296/88/102 295/85/102 308/95/102 307/96/102 
f 300/90/95 299/89/95 315/104/96 316/103/96 
f 306/92/94 305/93/94 316/103/96 315/104/96 
f 304/94/95 303/91/95 310/97/96 309/98/96 
# 48 polygons

#
# object Box007
#

v  -61.1197 150.5620 40.2956
v  -61.1885 150.5620 58.1001
v  -43.6155 150.5620 57.7976
v  54.9599 150.5620 -38.6589
v  55.0606 150.5620 -58.6053
v  37.8322 150.5620 -58.5070
v  -49.6784 149.5218 65.8370
v  58.8549 149.5218 -40.8251
v  43.4460 149.5218 -64.5496
v  -65.0872 149.5218 44.9193
v  -61.1197 2.3498 40.2956
v  37.8322 2.3498 -58.5070
v  55.0606 2.3498 -58.6053
v  54.9599 2.3498 -38.6589
v  -43.6155 2.3498 57.7976
v  -61.1885 2.3498 58.1001
v  -49.6784 3.3900 65.8370
v  58.8549 3.3900 -40.8251
v  43.4460 3.3900 -64.5496
v  -65.0872 3.3900 44.9193
# 20 vertices

vn -0.6040 0.5189 -0.6049
vn 0.0000 1.0000 0.0000
vn 0.3310 0.8809 0.3383
vn 0.3591 0.8581 0.3670
vn -0.5029 0.7025 -0.5036
vn 0.5486 0.6224 0.5582
vn 0.5917 0.5360 0.6021
vn -0.7029 0.1420 -0.6969
vn -0.6914 -0.2284 -0.6855
vn -0.6040 -0.5189 -0.6049
vn -0.5029 -0.7025 -0.5036
vn -0.0000 -1.0000 -0.0000
vn 0.3591 -0.8581 0.3670
vn 0.3310 -0.8809 0.3383
vn 0.5486 -0.6224 0.5582
vn 0.5917 -0.5360 0.6021
vn -0.7029 -0.1420 -0.6969
vn -0.6914 0.2284 -0.6855
# 18 vertex normals

vt 1.0000 1.0000 1.0000
# 1 texture coords

o Box007
g Box007
usemtl wire_087225143
s off
f 317/105/103 318/105/104 319/105/105 320/105/106 321/105/104 322/105/107 
f 323/105/108 324/105/109 320/105/106 319/105/105 
f 325/105/110 326/105/111 317/105/103 322/105/107 
f 327/105/112 328/105/113 329/105/114 330/105/115 331/105/116 332/105/114 
f 333/105/117 331/105/116 330/105/115 334/105/118 
f 335/105/119 328/105/113 327/105/112 336/105/120 
# 6 polygons

